<?xml version="1.0" standalone="no"?><!DOCTYPE svg PUBLIC "-//W3C//DTD SVG 1.1//EN" "http://www.w3.org/Graphics/SVG/1.1/DTD/svg11.dtd"><svg t="1754154647690" class="icon" viewBox="0 0 1024 1024" version="1.1" xmlns="http://www.w3.org/2000/svg" p-id="1342" xmlns:xlink="http://www.w3.org/1999/xlink" width="200" height="200"><path d="M511.488 102.912c-299.52 0-410.112 261.12-410.112 407.552 0 146.432 106.496 410.112 401.408 410.112 0 0 73.216 1.536 73.216-64.512s-32.768-45.056-32.768-92.16c0-47.616 32.768-68.608 48.64-68.608s119.808 7.68 178.176-14.336c57.856-22.528 151.552-93.696 151.552-215.04 0-107.008-111.104-363.008-410.112-363.008zM261.632 512c-39.424 0-71.68-32.256-71.68-71.68 0-39.424 31.744-71.168 71.168-71.168 39.424 0 71.168 31.744 71.168 71.168 0 39.424-31.744 71.68-70.656 71.68z m134.144-176.64c-39.424 0-71.168-31.744-71.168-71.168 0-39.424 31.744-71.168 71.168-71.168 39.424 0 71.168 31.744 71.168 71.168 0 39.424-31.744 71.168-71.168 71.168z m228.352 0c-39.424 0-71.168-31.744-71.168-71.168 0-39.424 31.744-71.168 71.168-71.168 39.424 0 71.168 31.744 71.168 71.168 0 39.424-31.744 71.168-71.168 71.168zM759.808 512c-39.424 0-71.168-31.744-71.168-71.168 0-39.424 31.744-71.168 71.168-71.168 39.424 0 71.168 31.744 71.168 71.168 0 38.912-31.744 71.168-71.168 71.168z m0 0" p-id="1343"></path></svg>